<?xml version="1.0" ?>
<!-- Uploaded to: SVG Repo, www.svgrepo.com, Generator: SVG Repo Mixer Tools -->
<svg fill="#000000" width="800px" height="800px" viewBox="0 0 100 100" version="1.1" xml:space="preserve" xmlns="http://www.w3.org/2000/svg" xmlns:xlink="http://www.w3.org/1999/xlink">
<g id="network"/>
<g id="connection"/>
<g id="page"/>
<g id="support"/>
<g id="configuration"/>
<g id="cloud_storage"/>
<g id="password"/>
<g id="search_engine"/>
<g id="history"/>
<g id="SEO"/>
<g id="optimization"/>
<g id="backlink"/>
<g id="performance"/>
<g id="analytics"/>
<g id="security"/>
<g id="dark_web"/>
<g id="video_player"/>
<g id="upload_download"/>
<g id="incognito_tab">
<g>
<path d="M22,54h56c1.7,0,3-1.3,3-3v-3c0-1.7-1.3-3-3-3h-8.5l4.5-33c0.3-2-0.3-4-1.7-5.6C71.1,4.9,69.1,4,67.1,4H32.9    c-2,0-4,0.9-5.3,2.4c-1.3,1.5-1.9,3.6-1.7,5.6l4.5,33H22c-1.7,0-3,1.3-3,3v3C19,52.7,20.3,54,22,54z M27.9,11.7    c-0.2-1.4,0.2-2.9,1.2-4c1-1.1,2.3-1.7,3.8-1.7h34.2c1.4,0,2.8,0.6,3.8,1.7c1,1.1,1.4,2.5,1.2,4L67.5,45H32.5L27.9,11.7z M21,48    c0-0.6,0.4-1,1-1h9.6h36.8H78c0.6,0,1,0.4,1,1v3c0,0.6-0.4,1-1,1H22c-0.6,0-1-0.4-1-1V48z"/>
<path d="M54.4,65h-8.8c-1.3-5.2-6-9-11.6-9c-6.6,0-12,5.4-12,12s5.4,12,12,12c5.2,0,9.6-3.3,11.3-8h9.4c1.7,4.7,6.1,8,11.3,8    c6.6,0,12-5.4,12-12s-5.4-12-12-12C60.4,56,55.7,59.8,54.4,65z M34,78c-5.5,0-10-4.5-10-10s4.5-10,10-10s10,4.5,10,10    S39.5,78,34,78z M45.8,70c0.1-0.7,0.2-1.3,0.2-2c0-0.3,0-0.7-0.1-1h8.1c0,0.3-0.1,0.7-0.1,1c0,0.7,0.1,1.3,0.2,2H45.8z M76,68    c0,5.5-4.5,10-10,10s-10-4.5-10-10s4.5-10,10-10S76,62.5,76,68z"/>
<path d="M81.2,79c-0.5-0.1-0.9,0.2-1.1,0.6c-1.1,3.1-3.2,5.1-6.1,5.9c-4.4,1.3-9.8-0.4-12.6-2.6C56.7,79.3,51.2,80,50,80.2    c-1.1-0.2-6.7-0.9-11.3,2.7c-2.8,2.2-8.2,3.9-12.6,2.6c-2.9-0.8-5-2.8-6.1-5.9c-0.2-0.5-0.6-0.7-1.1-0.6c-0.5,0.1-0.8,0.5-0.8,1    c0,0.1,0.2,14.7,15.3,16c5.5,0,8.3-0.8,10.7-1.5c1.9-0.5,3.5-1,6-1s4.1,0.5,6,1c2.5,0.7,5.3,1.5,10.8,1.5c0,0,0,0,0,0    C81.8,94.7,82,80.1,82,80C82,79.5,81.7,79.1,81.2,79z M66.7,94c-5.2,0-7.8-0.8-10.2-1.4c-1.9-0.6-3.7-1.1-6.5-1.1    s-4.6,0.5-6.5,1.1c-2.3,0.7-5,1.4-10.1,1.4c-7.8-0.7-11.1-5.3-12.4-9c1.2,1.2,2.7,2.1,4.5,2.6c5.1,1.5,11.2-0.5,14.4-3    c4.3-3.4,9.8-2.3,9.9-2.3c0.1,0,0.3,0,0.4,0c0.1,0,5.6-1.1,9.9,2.3c3.2,2.5,9.4,4.5,14.4,3c1.7-0.5,3.3-1.4,4.5-2.6    C77.7,88.7,74.5,93.3,66.7,94z"/>
</g>
</g>
<g id="bookmark"/>
</svg>